# xmcd CD database file
#
# Track frame offsets:
#	150
#	15466
#	47291
#	71705
#	91925
#	117053
#	139642
#	156633
#	179722
#	196283
#	222194
#	239730
#	265537
#	294084
#	322834
#	344998
#
# Disc length: 4884 seconds
#
# Revision: 1
# Processed by: cddbd v1.5.2PL0 Copyright (c) Steve Scherf et al.
# Submitted via: CDex 1.51
#
DISCID=ea131210
DTITLE=Various Artist - The Colour of Salsa  [CD 3-3]
DYEAR=2011
DGENRE=Salsa
TTITLE0=Vitorio Vargas - Bilongo
TTITLE1=Adelita Ortega - (Un, Dos, Tres)  Maria
TTITLE2=Rico Chueca - Tresero Cimarron
TTITLE3=A delia Alcaraz - Son De A Verdad
TTITLE4=Fredo Salinas - Etnia
TTITLE5=Alandra Alonzo - No Lo Voy A Olividar
TTITLE6=Lorenzo Balderas - Esta En Candela Mi Son
TTITLE7=Estrella De Cerro - In Adios
TTITLE8=Javier Lovato - Subeme El Voltaje
TTITLE9=Anna Alferez and Vidor Robles - Que Manera De Quererte
TTITLE10=Carla Rubio - La Unica
TTITLE11=Esmeralda Mateo - Tante Gente
TTITLE12=Leandro Rocha - Aprovechalo
TTITLE13=Brisa Briones - Tumbao Latino Antillano
TTITLE14=Maximo Delarosa - Siembra
TTITLE15=Victor De Villa - Oye
EXTD=YEAR: 2011
EXTT0=
EXTT1=
EXTT2=
EXTT3=
EXTT4=
EXTT5=
EXTT6=
EXTT7=
EXTT8=
EXTT9=
EXTT10=
EXTT11=
EXTT12=
EXTT13=
EXTT14=
EXTT15=
PLAYORDER=
